<?xml version="1.0" encoding="UTF-8" standalone="no"?>
<!DOCTYPE svg PUBLIC "-//W3C//DTD SVG 1.1//EN"
 "http://www.w3.org/Graphics/SVG/1.1/DTD/svg11.dtd">
<!-- Generated by graphviz version 5.0.0 (20220707.1540)
 -->
<!-- Title: dependencies Pages: 1 -->
<svg width="436pt" height="247pt"
 viewBox="0.00 0.00 436.00 246.80" xmlns="http://www.w3.org/2000/svg" xmlns:xlink="http://www.w3.org/1999/xlink">
<g id="graph0" class="graph" transform="scale(1 1) rotate(0) translate(4 242.8)">
<title>dependencies</title>
<polygon fill="white" stroke="transparent" points="-4,4 -4,-242.8 432,-242.8 432,4 -4,4"/>
<text text-anchor="middle" x="214" y="-8.2" font-family="sans-serif" font-size="14.00">dependencies</text>
<g id="clust1" class="cluster">
<title>cluster_CoreModule</title>
<polygon fill="none" stroke="black" stroke-dasharray="1,5" points="8,-32.8 8,-230.8 420,-230.8 420,-32.8 8,-32.8"/>
</g>
<g id="clust6" class="cluster">
<title>cluster_CoreModule_exports</title>
<polygon fill="none" stroke="black" points="36,-170.8 36,-222.8 412,-222.8 412,-170.8 36,-170.8"/>
</g>
<g id="clust2" class="cluster">
<title>cluster_CoreModule_declarations</title>
<polygon fill="none" stroke="black" points="138,-40.8 138,-92.8 412,-92.8 412,-40.8 138,-40.8"/>
</g>
<g id="clust5" class="cluster">
<title>cluster_CoreModule_imports</title>
<polygon fill="none" stroke="black" points="16,-40.8 16,-92.8 130,-92.8 130,-40.8 16,-40.8"/>
</g>
<!-- FooterComponent -->
<g id="node1" class="node">
<title>FooterComponent</title>
<polygon fill="#ffffb3" stroke="black" points="403.88,-84.8 286.12,-84.8 286.12,-48.8 403.88,-48.8 403.88,-84.8"/>
<text text-anchor="middle" x="345" y="-62.6" font-family="Times,serif" font-size="14.00">FooterComponent</text>
</g>
<!-- CoreModule -->
<g id="node3" class="node">
<title>CoreModule</title>
<polygon fill="#8dd3c7" stroke="black" points="247.27,-149.8 244.27,-153.8 223.27,-153.8 220.27,-149.8 160.73,-149.8 160.73,-113.8 247.27,-113.8 247.27,-149.8"/>
<text text-anchor="middle" x="204" y="-127.6" font-family="Times,serif" font-size="14.00">CoreModule</text>
</g>
<!-- FooterComponent&#45;&gt;CoreModule -->
<g id="edge1" class="edge">
<title>FooterComponent&#45;&gt;CoreModule</title>
<path fill="none" stroke="black" d="M325.27,-84.82C325.27,-102.17 325.27,-125.8 325.27,-125.8 325.27,-125.8 257.44,-125.8 257.44,-125.8"/>
<polygon fill="black" stroke="black" points="257.44,-122.3 247.44,-125.8 257.44,-129.3 257.44,-122.3"/>
</g>
<!-- HeaderComponent -->
<g id="node2" class="node">
<title>HeaderComponent</title>
<polygon fill="#ffffb3" stroke="black" points="267.75,-84.8 146.25,-84.8 146.25,-48.8 267.75,-48.8 267.75,-84.8"/>
<text text-anchor="middle" x="207" y="-62.6" font-family="Times,serif" font-size="14.00">HeaderComponent</text>
</g>
<!-- HeaderComponent&#45;&gt;CoreModule -->
<g id="edge2" class="edge">
<title>HeaderComponent&#45;&gt;CoreModule</title>
<path fill="none" stroke="black" d="M204,-84.91C204,-84.91 204,-103.79 204,-103.79"/>
<polygon fill="black" stroke="black" points="200.5,-103.79 204,-113.79 207.5,-103.79 200.5,-103.79"/>
</g>
<!-- FooterComponent  -->
<g id="node5" class="node">
<title>FooterComponent </title>
<polygon fill="#fb8072" stroke="black" points="403.88,-214.8 282.12,-214.8 282.12,-178.8 403.88,-178.8 403.88,-214.8"/>
<text text-anchor="middle" x="343" y="-192.6" font-family="Times,serif" font-size="14.00">FooterComponent </text>
</g>
<!-- CoreModule&#45;&gt;FooterComponent  -->
<g id="edge4" class="edge">
<title>CoreModule&#45;&gt;FooterComponent </title>
<path fill="none" stroke="black" stroke-dasharray="5,2" d="M247.43,-137.8C294.96,-137.8 364.48,-137.8 364.48,-137.8 364.48,-137.8 364.48,-168.78 364.48,-168.78"/>
<polygon fill="black" stroke="black" points="360.98,-168.78 364.48,-178.78 367.98,-168.78 360.98,-168.78"/>
</g>
<!-- HeaderComponent  -->
<g id="node6" class="node">
<title>HeaderComponent </title>
<polygon fill="#fb8072" stroke="black" points="264.75,-214.8 139.25,-214.8 139.25,-178.8 264.75,-178.8 264.75,-214.8"/>
<text text-anchor="middle" x="202" y="-192.6" font-family="Times,serif" font-size="14.00">HeaderComponent </text>
</g>
<!-- CoreModule&#45;&gt;HeaderComponent  -->
<g id="edge5" class="edge">
<title>CoreModule&#45;&gt;HeaderComponent </title>
<path fill="none" stroke="black" stroke-dasharray="5,2" d="M204,-149.91C204,-149.91 204,-168.79 204,-168.79"/>
<polygon fill="black" stroke="black" points="200.5,-168.79 204,-178.79 207.5,-168.79 200.5,-168.79"/>
</g>
<!-- UiModule  -->
<g id="node7" class="node">
<title>UiModule </title>
<polygon fill="#fb8072" stroke="black" points="121.55,-214.8 44.45,-214.8 44.45,-178.8 121.55,-178.8 121.55,-214.8"/>
<text text-anchor="middle" x="83" y="-192.6" font-family="Times,serif" font-size="14.00">UiModule </text>
</g>
<!-- CoreModule&#45;&gt;UiModule  -->
<g id="edge6" class="edge">
<title>CoreModule&#45;&gt;UiModule </title>
<path fill="none" stroke="black" stroke-dasharray="5,2" d="M160.63,-137.8C130.54,-137.8 95.84,-137.8 95.84,-137.8 95.84,-137.8 95.84,-168.78 95.84,-168.78"/>
<polygon fill="black" stroke="black" points="92.34,-168.78 95.84,-178.78 99.34,-168.78 92.34,-168.78"/>
</g>
<!-- SharedModule -->
<g id="node4" class="node">
<title>SharedModule</title>
<polygon fill="#8dd3c7" stroke="black" points="122.43,-84.8 119.43,-88.8 98.43,-88.8 95.43,-84.8 23.57,-84.8 23.57,-48.8 122.43,-48.8 122.43,-84.8"/>
<text text-anchor="middle" x="73" y="-62.6" font-family="Times,serif" font-size="14.00">SharedModule</text>
</g>
<!-- SharedModule&#45;&gt;CoreModule -->
<g id="edge3" class="edge">
<title>SharedModule&#45;&gt;CoreModule</title>
<path fill="none" stroke="black" d="M70.16,-84.82C70.16,-102.17 70.16,-125.8 70.16,-125.8 70.16,-125.8 150.55,-125.8 150.55,-125.8"/>
<polygon fill="black" stroke="black" points="150.55,-129.3 160.55,-125.8 150.55,-122.3 150.55,-129.3"/>
</g>
</g>
</svg>
