<?xml version="1.0" encoding="UTF-8" standalone="no"?>
<!DOCTYPE svg PUBLIC "-//W3C//DTD SVG 1.1//EN"
 "http://www.w3.org/Graphics/SVG/1.1/DTD/svg11.dtd">
<!-- Generated by graphviz version 5.0.0 (20220707.1540)
 -->
<!-- Title: dependencies Pages: 1 -->
<svg width="1185pt" height="174pt"
 viewBox="0.00 0.00 1185.00 173.80" xmlns="http://www.w3.org/2000/svg" xmlns:xlink="http://www.w3.org/1999/xlink">
<g id="graph0" class="graph" transform="scale(1 1) rotate(0) translate(4 169.8)">
<title>dependencies</title>
<polygon fill="white" stroke="transparent" points="-4,4 -4,-169.8 1181,-169.8 1181,4 -4,4"/>
<text text-anchor="middle" x="588.5" y="-8.2" font-family="sans-serif" font-size="14.00">dependencies</text>
<g id="clust1" class="cluster">
<title>cluster_TasksModule</title>
<polygon fill="none" stroke="black" stroke-dasharray="1,5" points="8,-32.8 8,-157.8 1169,-157.8 1169,-32.8 8,-32.8"/>
</g>
<g id="clust2" class="cluster">
<title>cluster_TasksModule_declarations</title>
<polygon fill="none" stroke="black" points="294,-40.8 294,-92.8 1161,-92.8 1161,-40.8 294,-40.8"/>
</g>
<g id="clust8" class="cluster">
<title>cluster_TasksModule_imports</title>
<polygon fill="none" stroke="black" points="16,-40.8 16,-92.8 286,-92.8 286,-40.8 16,-40.8"/>
</g>
<!-- ColumnTasksComponent -->
<g id="node1" class="node">
<title>ColumnTasksComponent</title>
<polygon fill="#ffffb3" stroke="black" points="1152.61,-84.8 993.39,-84.8 993.39,-48.8 1152.61,-48.8 1152.61,-84.8"/>
<text text-anchor="middle" x="1073" y="-62.6" font-family="Times,serif" font-size="14.00">ColumnTasksComponent</text>
</g>
<!-- TasksModule -->
<g id="node6" class="node">
<title>TasksModule</title>
<polygon fill="#8dd3c7" stroke="black" points="608.21,-149.8 605.21,-153.8 584.21,-153.8 581.21,-149.8 515.79,-149.8 515.79,-113.8 608.21,-113.8 608.21,-149.8"/>
<text text-anchor="middle" x="562" y="-127.6" font-family="Times,serif" font-size="14.00">TasksModule</text>
</g>
<!-- ColumnTasksComponent&#45;&gt;TasksModule -->
<g id="edge1" class="edge">
<title>ColumnTasksComponent&#45;&gt;TasksModule</title>
<path fill="none" stroke="black" d="M1073,-85.09C1073,-107.01 1073,-140.8 1073,-140.8 1073,-140.8 618.25,-140.8 618.25,-140.8"/>
<polygon fill="black" stroke="black" points="618.25,-137.3 608.25,-140.8 618.25,-144.3 618.25,-137.3"/>
</g>
<!-- FormTaskComponent -->
<g id="node2" class="node">
<title>FormTaskComponent</title>
<polygon fill="#ffffb3" stroke="black" points="975.38,-84.8 836.62,-84.8 836.62,-48.8 975.38,-48.8 975.38,-84.8"/>
<text text-anchor="middle" x="906" y="-62.6" font-family="Times,serif" font-size="14.00">FormTaskComponent</text>
</g>
<!-- FormTaskComponent&#45;&gt;TasksModule -->
<g id="edge2" class="edge">
<title>FormTaskComponent&#45;&gt;TasksModule</title>
<path fill="none" stroke="black" d="M906,-84.91C906,-104.14 906,-131.8 906,-131.8 906,-131.8 618.39,-131.8 618.39,-131.8"/>
<polygon fill="black" stroke="black" points="618.39,-128.3 608.39,-131.8 618.39,-135.3 618.39,-128.3"/>
</g>
<!-- PageAddTaskComponent -->
<g id="node3" class="node">
<title>PageAddTaskComponent</title>
<polygon fill="#ffffb3" stroke="black" points="818.87,-84.8 659.13,-84.8 659.13,-48.8 818.87,-48.8 818.87,-84.8"/>
<text text-anchor="middle" x="739" y="-62.6" font-family="Times,serif" font-size="14.00">PageAddTaskComponent</text>
</g>
<!-- PageAddTaskComponent&#45;&gt;TasksModule -->
<g id="edge3" class="edge">
<title>PageAddTaskComponent&#45;&gt;TasksModule</title>
<path fill="none" stroke="black" d="M739,-84.83C739,-101.2 739,-122.8 739,-122.8 739,-122.8 618.5,-122.8 618.5,-122.8"/>
<polygon fill="black" stroke="black" points="618.5,-119.3 608.5,-122.8 618.5,-126.3 618.5,-119.3"/>
</g>
<!-- PageEditTaskComponent -->
<g id="node4" class="node">
<title>PageEditTaskComponent</title>
<polygon fill="#ffffb3" stroke="black" points="641.59,-84.8 482.41,-84.8 482.41,-48.8 641.59,-48.8 641.59,-84.8"/>
<text text-anchor="middle" x="562" y="-62.6" font-family="Times,serif" font-size="14.00">PageEditTaskComponent</text>
</g>
<!-- PageEditTaskComponent&#45;&gt;TasksModule -->
<g id="edge4" class="edge">
<title>PageEditTaskComponent&#45;&gt;TasksModule</title>
<path fill="none" stroke="black" d="M562,-84.91C562,-84.91 562,-103.79 562,-103.79"/>
<polygon fill="black" stroke="black" points="558.5,-103.79 562,-113.79 565.5,-103.79 558.5,-103.79"/>
</g>
<!-- PageListTasksComponent -->
<g id="node5" class="node">
<title>PageListTasksComponent</title>
<polygon fill="#ffffb3" stroke="black" points="464.49,-84.8 301.51,-84.8 301.51,-48.8 464.49,-48.8 464.49,-84.8"/>
<text text-anchor="middle" x="383" y="-62.6" font-family="Times,serif" font-size="14.00">PageListTasksComponent</text>
</g>
<!-- PageListTasksComponent&#45;&gt;TasksModule -->
<g id="edge5" class="edge">
<title>PageListTasksComponent&#45;&gt;TasksModule</title>
<path fill="none" stroke="black" d="M383,-84.83C383,-101.2 383,-122.8 383,-122.8 383,-122.8 505.44,-122.8 505.44,-122.8"/>
<polygon fill="black" stroke="black" points="505.44,-126.3 515.44,-122.8 505.44,-119.3 505.44,-126.3"/>
</g>
<!-- SharedModule -->
<g id="node7" class="node">
<title>SharedModule</title>
<polygon fill="#8dd3c7" stroke="black" points="278.43,-84.8 275.43,-88.8 254.43,-88.8 251.43,-84.8 179.57,-84.8 179.57,-48.8 278.43,-48.8 278.43,-84.8"/>
<text text-anchor="middle" x="229" y="-62.6" font-family="Times,serif" font-size="14.00">SharedModule</text>
</g>
<!-- SharedModule&#45;&gt;TasksModule -->
<g id="edge6" class="edge">
<title>SharedModule&#45;&gt;TasksModule</title>
<path fill="none" stroke="black" d="M229,-84.91C229,-104.14 229,-131.8 229,-131.8 229,-131.8 505.7,-131.8 505.7,-131.8"/>
<polygon fill="black" stroke="black" points="505.7,-135.3 515.7,-131.8 505.7,-128.3 505.7,-135.3"/>
</g>
<!-- TasksRoutingModule -->
<g id="node8" class="node">
<title>TasksRoutingModule</title>
<polygon fill="#8dd3c7" stroke="black" points="161.83,-84.8 158.83,-88.8 137.83,-88.8 134.83,-84.8 24.17,-84.8 24.17,-48.8 161.83,-48.8 161.83,-84.8"/>
<text text-anchor="middle" x="93" y="-62.6" font-family="Times,serif" font-size="14.00">TasksRoutingModule</text>
</g>
<!-- TasksRoutingModule&#45;&gt;TasksModule -->
<g id="edge7" class="edge">
<title>TasksRoutingModule&#45;&gt;TasksModule</title>
<path fill="none" stroke="black" d="M93,-85.09C93,-107.01 93,-140.8 93,-140.8 93,-140.8 505.75,-140.8 505.75,-140.8"/>
<polygon fill="black" stroke="black" points="505.75,-144.3 515.75,-140.8 505.75,-137.3 505.75,-144.3"/>
</g>
</g>
</svg>
