<?xml version="1.0" encoding="UTF-8" standalone="no"?>
<!DOCTYPE svg PUBLIC "-//W3C//DTD SVG 1.1//EN"
 "http://www.w3.org/Graphics/SVG/1.1/DTD/svg11.dtd">
<!-- Generated by graphviz version 5.0.0 (20220707.1540)
 -->
<!-- Title: dependencies Pages: 1 -->
<svg width="279pt" height="247pt"
 viewBox="0.00 0.00 279.00 246.80" xmlns="http://www.w3.org/2000/svg" xmlns:xlink="http://www.w3.org/1999/xlink">
<g id="graph0" class="graph" transform="scale(1 1) rotate(0) translate(4 242.8)">
<title>dependencies</title>
<polygon fill="white" stroke="transparent" points="-4,4 -4,-242.8 275,-242.8 275,4 -4,4"/>
<text text-anchor="middle" x="135.5" y="-8.2" font-family="sans-serif" font-size="14.00">dependencies</text>
<g id="clust1" class="cluster">
<title>cluster_SharedModule</title>
<polygon fill="none" stroke="black" stroke-dasharray="1,5" points="8,-32.8 8,-230.8 263,-230.8 263,-32.8 8,-32.8"/>
</g>
<g id="clust2" class="cluster">
<title>cluster_SharedModule_declarations</title>
<polygon fill="none" stroke="black" points="20,-40.8 20,-92.8 252,-92.8 252,-40.8 20,-40.8"/>
</g>
<g id="clust6" class="cluster">
<title>cluster_SharedModule_exports</title>
<polygon fill="none" stroke="black" points="16,-170.8 16,-222.8 255,-222.8 255,-170.8 16,-170.8"/>
</g>
<!-- BtnComponent -->
<g id="node1" class="node">
<title>BtnComponent</title>
<polygon fill="#ffffb3" stroke="black" points="243.56,-84.8 142.44,-84.8 142.44,-48.8 243.56,-48.8 243.56,-84.8"/>
<text text-anchor="middle" x="193" y="-62.6" font-family="Times,serif" font-size="14.00">BtnComponent</text>
</g>
<!-- SharedModule -->
<g id="node3" class="node">
<title>SharedModule</title>
<polygon fill="#8dd3c7" stroke="black" points="126.43,-149.8 123.43,-153.8 102.43,-153.8 99.43,-149.8 27.57,-149.8 27.57,-113.8 126.43,-113.8 126.43,-149.8"/>
<text text-anchor="middle" x="77" y="-127.6" font-family="Times,serif" font-size="14.00">SharedModule</text>
</g>
<!-- BtnComponent&#45;&gt;SharedModule -->
<g id="edge1" class="edge">
<title>BtnComponent&#45;&gt;SharedModule</title>
<path fill="none" stroke="black" d="M209.93,-84.82C209.93,-102.17 209.93,-125.8 209.93,-125.8 209.93,-125.8 136.5,-125.8 136.5,-125.8"/>
<polygon fill="black" stroke="black" points="136.5,-122.3 126.5,-125.8 136.5,-129.3 136.5,-122.3"/>
</g>
<!-- StateDirective -->
<g id="node2" class="node">
<title>StateDirective</title>
<polygon fill="#ffffb3" stroke="black" points="124.08,-84.8 27.92,-84.8 27.92,-48.8 124.08,-48.8 124.08,-84.8"/>
<text text-anchor="middle" x="76" y="-62.6" font-family="Times,serif" font-size="14.00">StateDirective</text>
</g>
<!-- StateDirective&#45;&gt;SharedModule -->
<g id="edge2" class="edge">
<title>StateDirective&#45;&gt;SharedModule</title>
<path fill="none" stroke="black" d="M76,-84.91C76,-84.91 76,-103.79 76,-103.79"/>
<polygon fill="black" stroke="black" points="72.5,-103.79 76,-113.79 79.5,-103.79 72.5,-103.79"/>
</g>
<!-- BtnComponent  -->
<g id="node4" class="node">
<title>BtnComponent </title>
<polygon fill="#fb8072" stroke="black" points="246.56,-214.8 141.44,-214.8 141.44,-178.8 246.56,-178.8 246.56,-214.8"/>
<text text-anchor="middle" x="194" y="-192.6" font-family="Times,serif" font-size="14.00">BtnComponent </text>
</g>
<!-- SharedModule&#45;&gt;BtnComponent  -->
<g id="edge3" class="edge">
<title>SharedModule&#45;&gt;BtnComponent </title>
<path fill="none" stroke="black" stroke-dasharray="5,2" d="M126.25,-137.8C151.11,-137.8 176.07,-137.8 176.07,-137.8 176.07,-137.8 176.07,-168.78 176.07,-168.78"/>
<polygon fill="black" stroke="black" points="172.57,-168.78 176.07,-178.78 179.57,-168.78 172.57,-168.78"/>
</g>
<!-- StateDirective  -->
<g id="node5" class="node">
<title>StateDirective </title>
<polygon fill="#fb8072" stroke="black" points="123.58,-214.8 24.42,-214.8 24.42,-178.8 123.58,-178.8 123.58,-214.8"/>
<text text-anchor="middle" x="74" y="-192.6" font-family="Times,serif" font-size="14.00">StateDirective </text>
</g>
<!-- SharedModule&#45;&gt;StateDirective  -->
<g id="edge4" class="edge">
<title>SharedModule&#45;&gt;StateDirective </title>
<path fill="none" stroke="black" stroke-dasharray="5,2" d="M75.79,-149.91C75.79,-149.91 75.79,-168.79 75.79,-168.79"/>
<polygon fill="black" stroke="black" points="72.29,-168.79 75.79,-178.79 79.29,-168.79 72.29,-168.79"/>
</g>
</g>
</svg>
