<?xml version="1.0" encoding="UTF-8" standalone="no"?>
<!DOCTYPE svg PUBLIC "-//W3C//DTD SVG 1.1//EN"
 "http://www.w3.org/Graphics/SVG/1.1/DTD/svg11.dtd">
<!-- Generated by graphviz version 5.0.0 (20220707.1540)
 -->
<!-- Title: dependencies Pages: 1 -->
<svg width="551pt" height="174pt"
 viewBox="0.00 0.00 551.00 173.80" xmlns="http://www.w3.org/2000/svg" xmlns:xlink="http://www.w3.org/1999/xlink">
<g id="graph0" class="graph" transform="scale(1 1) rotate(0) translate(4 169.8)">
<title>dependencies</title>
<polygon fill="white" stroke="transparent" points="-4,4 -4,-169.8 547,-169.8 547,4 -4,4"/>
<text text-anchor="middle" x="271.5" y="-8.2" font-family="sans-serif" font-size="14.00">dependencies</text>
<g id="clust1" class="cluster">
<title>cluster_PageNotFoundModule</title>
<polygon fill="none" stroke="black" stroke-dasharray="1,5" points="8,-32.8 8,-157.8 535,-157.8 535,-32.8 8,-32.8"/>
</g>
<g id="clust4" class="cluster">
<title>cluster_PageNotFoundModule_imports</title>
<polygon fill="none" stroke="black" points="206,-40.8 206,-92.8 527,-92.8 527,-40.8 206,-40.8"/>
</g>
<g id="clust2" class="cluster">
<title>cluster_PageNotFoundModule_declarations</title>
<polygon fill="none" stroke="black" points="16,-40.8 16,-92.8 198,-92.8 198,-40.8 16,-40.8"/>
</g>
<!-- PageNotFoundComponent -->
<g id="node1" class="node">
<title>PageNotFoundComponent</title>
<polygon fill="#ffffb3" stroke="black" points="189.83,-84.8 24.17,-84.8 24.17,-48.8 189.83,-48.8 189.83,-84.8"/>
<text text-anchor="middle" x="107" y="-62.6" font-family="Times,serif" font-size="14.00">PageNotFoundComponent</text>
</g>
<!-- PageNotFoundModule -->
<g id="node2" class="node">
<title>PageNotFoundModule</title>
<polygon fill="#8dd3c7" stroke="black" points="334.55,-149.8 331.55,-153.8 310.55,-153.8 307.55,-149.8 191.45,-149.8 191.45,-113.8 334.55,-113.8 334.55,-149.8"/>
<text text-anchor="middle" x="263" y="-127.6" font-family="Times,serif" font-size="14.00">PageNotFoundModule</text>
</g>
<!-- PageNotFoundComponent&#45;&gt;PageNotFoundModule -->
<g id="edge1" class="edge">
<title>PageNotFoundComponent&#45;&gt;PageNotFoundModule</title>
<path fill="none" stroke="black" d="M190.02,-66.8C197.6,-66.8 202.51,-66.8 202.51,-66.8 202.51,-66.8 202.51,-103.69 202.51,-103.69"/>
<polygon fill="black" stroke="black" points="199.01,-103.69 202.51,-113.69 206.01,-103.69 199.01,-103.69"/>
</g>
<!-- PageNotFoundRoutingModule -->
<g id="node3" class="node">
<title>PageNotFoundRoutingModule</title>
<polygon fill="#8dd3c7" stroke="black" points="519.17,-84.8 516.17,-88.8 495.17,-88.8 492.17,-84.8 330.83,-84.8 330.83,-48.8 519.17,-48.8 519.17,-84.8"/>
<text text-anchor="middle" x="425" y="-62.6" font-family="Times,serif" font-size="14.00">PageNotFoundRoutingModule</text>
</g>
<!-- PageNotFoundRoutingModule&#45;&gt;PageNotFoundModule -->
<g id="edge2" class="edge">
<title>PageNotFoundRoutingModule&#45;&gt;PageNotFoundModule</title>
<path fill="none" stroke="black" d="M330.63,-66.8C324.93,-66.8 321.44,-66.8 321.44,-66.8 321.44,-66.8 321.44,-103.69 321.44,-103.69"/>
<polygon fill="black" stroke="black" points="317.94,-103.69 321.44,-113.69 324.94,-103.69 317.94,-103.69"/>
</g>
<!-- SharedModule -->
<g id="node4" class="node">
<title>SharedModule</title>
<polygon fill="#8dd3c7" stroke="black" points="312.43,-84.8 309.43,-88.8 288.43,-88.8 285.43,-84.8 213.57,-84.8 213.57,-48.8 312.43,-48.8 312.43,-84.8"/>
<text text-anchor="middle" x="263" y="-62.6" font-family="Times,serif" font-size="14.00">SharedModule</text>
</g>
<!-- SharedModule&#45;&gt;PageNotFoundModule -->
<g id="edge3" class="edge">
<title>SharedModule&#45;&gt;PageNotFoundModule</title>
<path fill="none" stroke="black" d="M263,-84.91C263,-84.91 263,-103.79 263,-103.79"/>
<polygon fill="black" stroke="black" points="259.5,-103.79 263,-113.79 266.5,-103.79 259.5,-103.79"/>
</g>
</g>
</svg>
