<?xml version="1.0" encoding="UTF-8" standalone="no"?>
<!DOCTYPE svg PUBLIC "-//W3C//DTD SVG 1.1//EN"
 "http://www.w3.org/Graphics/SVG/1.1/DTD/svg11.dtd">
<!-- Generated by graphviz version 5.0.0 (20220707.1540)
 -->
<!-- Title: dependencies Pages: 1 -->
<svg width="2832pt" height="261pt"
 viewBox="0.00 0.00 2832.00 260.80" xmlns="http://www.w3.org/2000/svg" xmlns:xlink="http://www.w3.org/1999/xlink">
<g id="graph0" class="graph" transform="scale(1 1) rotate(0) translate(4 256.8)">
<title>dependencies</title>
<polygon fill="white" stroke="transparent" points="-4,4 -4,-256.8 2828,-256.8 2828,4 -4,4"/>
<text text-anchor="middle" x="1412" y="-8.2" font-family="sans-serif" font-size="14.00">dependencies</text>
<g id="clust1" class="cluster">
<title>cluster_AppModule</title>
<polygon fill="none" stroke="black" stroke-dasharray="1,5" points="8,-32.8 8,-244.8 403,-244.8 403,-32.8 8,-32.8"/>
</g>
<g id="clust2" class="cluster">
<title>cluster_AppModule_declarations</title>
<polygon fill="none" stroke="black" points="16,-40.8 16,-92.8 138,-92.8 138,-40.8 16,-40.8"/>
</g>
<g id="clust4" class="cluster">
<title>cluster_AppModule_imports</title>
<polygon fill="none" stroke="black" points="146,-40.8 146,-92.8 395,-92.8 395,-40.8 146,-40.8"/>
</g>
<g id="clust6" class="cluster">
<title>cluster_AppModule_bootstrap</title>
<polygon fill="none" stroke="black" points="156,-184.8 156,-236.8 280,-236.8 280,-184.8 156,-184.8"/>
</g>
<g id="clust14" class="cluster">
<title>cluster_CoreModule</title>
<polygon fill="none" stroke="black" stroke-dasharray="1,5" points="829,-100.8 829,-168.8 1625,-168.8 1625,-100.8 829,-100.8"/>
</g>
<g id="clust15" class="cluster">
<title>cluster_CoreModule_declarations</title>
<polygon fill="none" stroke="black" points="1343,-108.8 1343,-160.8 1617,-160.8 1617,-108.8 1343,-108.8"/>
</g>
<g id="clust18" class="cluster">
<title>cluster_CoreModule_imports</title>
<polygon fill="none" stroke="black" points="1221,-108.8 1221,-160.8 1335,-160.8 1335,-108.8 1221,-108.8"/>
</g>
<g id="clust19" class="cluster">
<title>cluster_CoreModule_exports</title>
<polygon fill="none" stroke="black" points="837,-108.8 837,-160.8 1213,-160.8 1213,-108.8 837,-108.8"/>
</g>
<g id="clust22" class="cluster">
<title>cluster_PageNotFoundModule</title>
<polygon fill="none" stroke="black" stroke-dasharray="1,5" points="411,-100.8 411,-236.8 821,-236.8 821,-100.8 411,-100.8"/>
</g>
<g id="clust23" class="cluster">
<title>cluster_PageNotFoundModule_declarations</title>
<polygon fill="none" stroke="black" points="631,-108.8 631,-160.8 813,-160.8 813,-108.8 631,-108.8"/>
</g>
<g id="clust25" class="cluster">
<title>cluster_PageNotFoundModule_imports</title>
<polygon fill="none" stroke="black" points="419,-108.8 419,-160.8 623,-160.8 623,-108.8 419,-108.8"/>
</g>
<g id="clust35" class="cluster">
<title>cluster_SharedModule</title>
<polygon fill="none" stroke="black" stroke-dasharray="1,5" points="1029,-176.8 1029,-244.8 1524,-244.8 1524,-176.8 1029,-176.8"/>
</g>
<g id="clust36" class="cluster">
<title>cluster_SharedModule_declarations</title>
<polygon fill="none" stroke="black" points="1284,-184.8 1284,-236.8 1516,-236.8 1516,-184.8 1284,-184.8"/>
</g>
<g id="clust40" class="cluster">
<title>cluster_SharedModule_exports</title>
<polygon fill="none" stroke="black" points="1037,-184.8 1037,-236.8 1276,-236.8 1276,-184.8 1037,-184.8"/>
</g>
<g id="clust43" class="cluster">
<title>cluster_TasksModule</title>
<polygon fill="none" stroke="black" stroke-dasharray="1,5" points="1633,-100.8 1633,-236.8 2678,-236.8 2678,-100.8 1633,-100.8"/>
</g>
<g id="clust44" class="cluster">
<title>cluster_TasksModule_declarations</title>
<polygon fill="none" stroke="black" points="1803,-108.8 1803,-160.8 2670,-160.8 2670,-108.8 1803,-108.8"/>
</g>
<g id="clust50" class="cluster">
<title>cluster_TasksModule_imports</title>
<polygon fill="none" stroke="black" points="1641,-108.8 1641,-160.8 1795,-160.8 1795,-108.8 1641,-108.8"/>
</g>
<g id="clust60" class="cluster">
<title>cluster_UiModule</title>
<polygon fill="none" stroke="black" stroke-dasharray="1,5" points="2686,-32.8 2686,-244.8 2816,-244.8 2816,-32.8 2686,-32.8"/>
</g>
<g id="clust61" class="cluster">
<title>cluster_UiModule_declarations</title>
<polygon fill="none" stroke="black" points="2695,-40.8 2695,-92.8 2807,-92.8 2807,-40.8 2695,-40.8"/>
</g>
<g id="clust64" class="cluster">
<title>cluster_UiModule_exports</title>
<polygon fill="none" stroke="black" points="2694,-184.8 2694,-236.8 2808,-236.8 2808,-184.8 2694,-184.8"/>
</g>
<!-- AppComponent -->
<g id="node1" class="node">
<title>AppComponent</title>
<polygon fill="#ffffb3" stroke="black" points="129.94,-84.8 24.06,-84.8 24.06,-48.8 129.94,-48.8 129.94,-84.8"/>
<text text-anchor="middle" x="77" y="-62.6" font-family="Times,serif" font-size="14.00">AppComponent</text>
</g>
<!-- AppModule -->
<g id="node2" class="node">
<title>AppModule</title>
<polygon fill="#8dd3c7" stroke="black" points="259.66,-152.8 256.66,-156.8 235.66,-156.8 232.66,-152.8 176.34,-152.8 176.34,-116.8 259.66,-116.8 259.66,-152.8"/>
<text text-anchor="middle" x="218" y="-130.6" font-family="Times,serif" font-size="14.00">AppModule</text>
</g>
<!-- AppComponent&#45;&gt;AppModule -->
<g id="edge1" class="edge">
<title>AppComponent&#45;&gt;AppModule</title>
<path fill="none" stroke="black" d="M77,-85.02C77,-105.17 77,-134.8 77,-134.8 77,-134.8 166.08,-134.8 166.08,-134.8"/>
<polygon fill="black" stroke="black" points="166.08,-138.3 176.08,-134.8 166.08,-131.3 166.08,-138.3"/>
</g>
<!-- AppComponent  -->
<g id="node5" class="node">
<title>AppComponent </title>
<polygon fill="#80b1d3" stroke="black" points="272.44,-228.8 163.56,-228.8 163.56,-192.8 272.44,-192.8 272.44,-228.8"/>
<text text-anchor="middle" x="218" y="-206.6" font-family="Times,serif" font-size="14.00">AppComponent </text>
</g>
<!-- AppModule&#45;&gt;AppComponent  -->
<g id="edge4" class="edge">
<title>AppModule&#45;&gt;AppComponent </title>
<path fill="none" stroke="black" stroke-dasharray="1,5" d="M218,-152.81C218,-152.81 218,-182.65 218,-182.65"/>
<polygon fill="black" stroke="black" points="214.5,-182.65 218,-192.65 221.5,-182.65 214.5,-182.65"/>
</g>
<!-- AppRoutingModule -->
<g id="node3" class="node">
<title>AppRoutingModule</title>
<polygon fill="#8dd3c7" stroke="black" points="282.28,-84.8 279.28,-88.8 258.28,-88.8 255.28,-84.8 153.72,-84.8 153.72,-48.8 282.28,-48.8 282.28,-84.8"/>
<text text-anchor="middle" x="218" y="-62.6" font-family="Times,serif" font-size="14.00">AppRoutingModule</text>
</g>
<!-- AppRoutingModule&#45;&gt;AppModule -->
<g id="edge2" class="edge">
<title>AppRoutingModule&#45;&gt;AppModule</title>
<path fill="none" stroke="black" d="M218,-85.02C218,-85.02 218,-106.53 218,-106.53"/>
<polygon fill="black" stroke="black" points="214.5,-106.53 218,-116.53 221.5,-106.53 214.5,-106.53"/>
</g>
<!-- CoreModule -->
<g id="node4" class="node">
<title>CoreModule</title>
<polygon fill="#8dd3c7" stroke="black" points="387.27,-84.8 384.27,-88.8 363.27,-88.8 360.27,-84.8 300.73,-84.8 300.73,-48.8 387.27,-48.8 387.27,-84.8"/>
<text text-anchor="middle" x="344" y="-62.6" font-family="Times,serif" font-size="14.00">CoreModule</text>
</g>
<!-- CoreModule&#45;&gt;AppModule -->
<g id="edge3" class="edge">
<title>CoreModule&#45;&gt;AppModule</title>
<path fill="none" stroke="black" d="M344,-85.02C344,-105.17 344,-134.8 344,-134.8 344,-134.8 269.96,-134.8 269.96,-134.8"/>
<polygon fill="black" stroke="black" points="269.96,-131.3 259.96,-134.8 269.96,-138.3 269.96,-131.3"/>
</g>
<!-- FooterComponent  -->
<g id="node9" class="node">
<title>FooterComponent </title>
<polygon fill="#fb8072" stroke="black" points="1204.88,-152.8 1083.12,-152.8 1083.12,-116.8 1204.88,-116.8 1204.88,-152.8"/>
<text text-anchor="middle" x="1144" y="-130.6" font-family="Times,serif" font-size="14.00">FooterComponent </text>
</g>
<!-- CoreModule&#45;&gt;FooterComponent  -->
<g id="edge8" class="edge">
<title>CoreModule&#45;&gt;FooterComponent </title>
<path fill="none" stroke="black" stroke-dasharray="5,2" d="M387.3,-69.8C553.85,-69.8 1144,-69.8 1144,-69.8 1144,-69.8 1144,-106.69 1144,-106.69"/>
<polygon fill="black" stroke="black" points="1140.5,-106.69 1144,-116.69 1147.5,-106.69 1140.5,-106.69"/>
</g>
<!-- HeaderComponent  -->
<g id="node10" class="node">
<title>HeaderComponent </title>
<polygon fill="#fb8072" stroke="black" points="1065.75,-152.8 940.25,-152.8 940.25,-116.8 1065.75,-116.8 1065.75,-152.8"/>
<text text-anchor="middle" x="1003" y="-130.6" font-family="Times,serif" font-size="14.00">HeaderComponent </text>
</g>
<!-- CoreModule&#45;&gt;HeaderComponent  -->
<g id="edge9" class="edge">
<title>CoreModule&#45;&gt;HeaderComponent </title>
<path fill="none" stroke="black" stroke-dasharray="5,2" d="M387.49,-74.8C534.39,-74.8 1003,-74.8 1003,-74.8 1003,-74.8 1003,-106.8 1003,-106.8"/>
<polygon fill="black" stroke="black" points="999.5,-106.8 1003,-116.8 1006.5,-106.8 999.5,-106.8"/>
</g>
<!-- UiModule  -->
<g id="node11" class="node">
<title>UiModule </title>
<polygon fill="#fb8072" stroke="black" points="922.55,-152.8 845.45,-152.8 845.45,-116.8 922.55,-116.8 922.55,-152.8"/>
<text text-anchor="middle" x="884" y="-130.6" font-family="Times,serif" font-size="14.00">UiModule </text>
</g>
<!-- CoreModule&#45;&gt;UiModule  -->
<g id="edge10" class="edge">
<title>CoreModule&#45;&gt;UiModule </title>
<path fill="none" stroke="black" stroke-dasharray="5,2" d="M387.28,-79.8C515.42,-79.8 884,-79.8 884,-79.8 884,-79.8 884,-106.79 884,-106.79"/>
<polygon fill="black" stroke="black" points="880.5,-106.79 884,-116.79 887.5,-106.79 880.5,-106.79"/>
</g>
<!-- FooterComponent -->
<g id="node6" class="node">
<title>FooterComponent</title>
<polygon fill="#ffffb3" stroke="black" points="1608.88,-152.8 1491.12,-152.8 1491.12,-116.8 1608.88,-116.8 1608.88,-152.8"/>
<text text-anchor="middle" x="1550" y="-130.6" font-family="Times,serif" font-size="14.00">FooterComponent</text>
</g>
<!-- FooterComponent&#45;&gt;CoreModule -->
<g id="edge5" class="edge">
<title>FooterComponent&#45;&gt;CoreModule</title>
<path fill="none" stroke="black" d="M1550,-116.65C1550,-93.04 1550,-54.8 1550,-54.8 1550,-54.8 397.28,-54.8 397.28,-54.8"/>
<polygon fill="black" stroke="black" points="397.28,-51.3 387.28,-54.8 397.28,-58.3 397.28,-51.3"/>
</g>
<!-- HeaderComponent -->
<g id="node7" class="node">
<title>HeaderComponent</title>
<polygon fill="#ffffb3" stroke="black" points="1472.75,-152.8 1351.25,-152.8 1351.25,-116.8 1472.75,-116.8 1472.75,-152.8"/>
<text text-anchor="middle" x="1412" y="-130.6" font-family="Times,serif" font-size="14.00">HeaderComponent</text>
</g>
<!-- HeaderComponent&#45;&gt;CoreModule -->
<g id="edge6" class="edge">
<title>HeaderComponent&#45;&gt;CoreModule</title>
<path fill="none" stroke="black" d="M1412,-116.64C1412,-94.45 1412,-59.8 1412,-59.8 1412,-59.8 397.52,-59.8 397.52,-59.8"/>
<polygon fill="black" stroke="black" points="397.52,-56.3 387.52,-59.8 397.52,-63.3 397.52,-56.3"/>
</g>
<!-- SharedModule -->
<g id="node8" class="node">
<title>SharedModule</title>
<polygon fill="#8dd3c7" stroke="black" points="1327.43,-152.8 1324.43,-156.8 1303.43,-156.8 1300.43,-152.8 1228.57,-152.8 1228.57,-116.8 1327.43,-116.8 1327.43,-152.8"/>
<text text-anchor="middle" x="1278" y="-130.6" font-family="Times,serif" font-size="14.00">SharedModule</text>
</g>
<!-- SharedModule&#45;&gt;CoreModule -->
<g id="edge7" class="edge">
<title>SharedModule&#45;&gt;CoreModule</title>
<path fill="none" stroke="black" d="M1278,-116.77C1278,-96.03 1278,-64.8 1278,-64.8 1278,-64.8 397.49,-64.8 397.49,-64.8"/>
<polygon fill="black" stroke="black" points="397.49,-61.3 387.49,-64.8 397.49,-68.3 397.49,-61.3"/>
</g>
<!-- PageNotFoundModule -->
<g id="node13" class="node">
<title>PageNotFoundModule</title>
<polygon fill="#8dd3c7" stroke="black" points="793.55,-228.8 790.55,-232.8 769.55,-232.8 766.55,-228.8 650.45,-228.8 650.45,-192.8 793.55,-192.8 793.55,-228.8"/>
<text text-anchor="middle" x="722" y="-206.6" font-family="Times,serif" font-size="14.00">PageNotFoundModule</text>
</g>
<!-- SharedModule&#45;&gt;PageNotFoundModule -->
<g id="edge13" class="edge">
<title>SharedModule&#45;&gt;PageNotFoundModule</title>
<path fill="none" stroke="black" d="M1238.47,-152.99C1238.47,-161.08 1238.47,-168.8 1238.47,-168.8 1238.47,-168.8 745.93,-168.8 745.93,-168.8 745.93,-168.8 745.93,-182.74 745.93,-182.74"/>
<polygon fill="black" stroke="black" points="742.43,-182.74 745.93,-192.74 749.43,-182.74 742.43,-182.74"/>
</g>
<!-- BtnComponent  -->
<g id="node17" class="node">
<title>BtnComponent </title>
<polygon fill="#fb8072" stroke="black" points="1267.56,-228.8 1162.44,-228.8 1162.44,-192.8 1267.56,-192.8 1267.56,-228.8"/>
<text text-anchor="middle" x="1215" y="-206.6" font-family="Times,serif" font-size="14.00">BtnComponent </text>
</g>
<!-- SharedModule&#45;&gt;BtnComponent  -->
<g id="edge16" class="edge">
<title>SharedModule&#45;&gt;BtnComponent </title>
<path fill="none" stroke="black" stroke-dasharray="5,2" d="M1257.84,-152.81C1257.84,-152.81 1257.84,-182.65 1257.84,-182.65"/>
<polygon fill="black" stroke="black" points="1254.34,-182.65 1257.84,-192.65 1261.34,-182.65 1254.34,-182.65"/>
</g>
<!-- StateDirective  -->
<g id="node18" class="node">
<title>StateDirective </title>
<polygon fill="#fb8072" stroke="black" points="1144.58,-228.8 1045.42,-228.8 1045.42,-192.8 1144.58,-192.8 1144.58,-228.8"/>
<text text-anchor="middle" x="1095" y="-206.6" font-family="Times,serif" font-size="14.00">StateDirective </text>
</g>
<!-- SharedModule&#45;&gt;StateDirective  -->
<g id="edge17" class="edge">
<title>SharedModule&#45;&gt;StateDirective </title>
<path fill="none" stroke="black" stroke-dasharray="5,2" d="M1248.16,-152.86C1248.16,-164.24 1248.16,-176.8 1248.16,-176.8 1248.16,-176.8 1114.05,-176.8 1114.05,-176.8 1114.05,-176.8 1114.05,-182.61 1114.05,-182.61"/>
<polygon fill="black" stroke="black" points="1110.55,-182.61 1114.05,-192.61 1117.55,-182.61 1110.55,-182.61"/>
</g>
<!-- TasksModule -->
<g id="node24" class="node">
<title>TasksModule</title>
<polygon fill="#8dd3c7" stroke="black" points="2117.21,-228.8 2114.21,-232.8 2093.21,-232.8 2090.21,-228.8 2024.79,-228.8 2024.79,-192.8 2117.21,-192.8 2117.21,-228.8"/>
<text text-anchor="middle" x="2071" y="-206.6" font-family="Times,serif" font-size="14.00">TasksModule</text>
</g>
<!-- SharedModule&#45;&gt;TasksModule -->
<g id="edge23" class="edge">
<title>SharedModule&#45;&gt;TasksModule</title>
<path fill="none" stroke="black" d="M1309.59,-152.86C1309.59,-157.29 1309.59,-160.8 1309.59,-160.8 1309.59,-160.8 2055.63,-160.8 2055.63,-160.8 2055.63,-160.8 2055.63,-182.75 2055.63,-182.75"/>
<polygon fill="black" stroke="black" points="2052.13,-182.75 2055.63,-192.75 2059.13,-182.75 2052.13,-182.75"/>
</g>
<!-- PageNotFoundComponent -->
<g id="node12" class="node">
<title>PageNotFoundComponent</title>
<polygon fill="#ffffb3" stroke="black" points="804.83,-152.8 639.17,-152.8 639.17,-116.8 804.83,-116.8 804.83,-152.8"/>
<text text-anchor="middle" x="722" y="-130.6" font-family="Times,serif" font-size="14.00">PageNotFoundComponent</text>
</g>
<!-- PageNotFoundComponent&#45;&gt;PageNotFoundModule -->
<g id="edge11" class="edge">
<title>PageNotFoundComponent&#45;&gt;PageNotFoundModule</title>
<path fill="none" stroke="black" d="M698.07,-152.81C698.07,-152.81 698.07,-182.65 698.07,-182.65"/>
<polygon fill="black" stroke="black" points="694.57,-182.65 698.07,-192.65 701.57,-182.65 694.57,-182.65"/>
</g>
<!-- PageNotFoundRoutingModule -->
<g id="node14" class="node">
<title>PageNotFoundRoutingModule</title>
<polygon fill="#8dd3c7" stroke="black" points="615.17,-152.8 612.17,-156.8 591.17,-156.8 588.17,-152.8 426.83,-152.8 426.83,-116.8 615.17,-116.8 615.17,-152.8"/>
<text text-anchor="middle" x="521" y="-130.6" font-family="Times,serif" font-size="14.00">PageNotFoundRoutingModule</text>
</g>
<!-- PageNotFoundRoutingModule&#45;&gt;PageNotFoundModule -->
<g id="edge12" class="edge">
<title>PageNotFoundRoutingModule&#45;&gt;PageNotFoundModule</title>
<path fill="none" stroke="black" d="M521,-152.81C521,-175.29 521,-210.8 521,-210.8 521,-210.8 640.29,-210.8 640.29,-210.8"/>
<polygon fill="black" stroke="black" points="640.29,-214.3 650.29,-210.8 640.29,-207.3 640.29,-214.3"/>
</g>
<!-- BtnComponent -->
<g id="node15" class="node">
<title>BtnComponent</title>
<polygon fill="#ffffb3" stroke="black" points="1507.56,-228.8 1406.44,-228.8 1406.44,-192.8 1507.56,-192.8 1507.56,-228.8"/>
<text text-anchor="middle" x="1457" y="-206.6" font-family="Times,serif" font-size="14.00">BtnComponent</text>
</g>
<!-- BtnComponent&#45;&gt;SharedModule -->
<g id="edge14" class="edge">
<title>BtnComponent&#45;&gt;SharedModule</title>
<path fill="none" stroke="black" d="M1439.55,-192.74C1439.55,-188.31 1439.55,-184.8 1439.55,-184.8 1439.55,-184.8 1318.4,-184.8 1318.4,-184.8 1318.4,-184.8 1318.4,-162.85 1318.4,-162.85"/>
<polygon fill="black" stroke="black" points="1321.9,-162.85 1318.4,-152.85 1314.9,-162.85 1321.9,-162.85"/>
</g>
<!-- StateDirective -->
<g id="node16" class="node">
<title>StateDirective</title>
<polygon fill="#ffffb3" stroke="black" points="1388.08,-228.8 1291.92,-228.8 1291.92,-192.8 1388.08,-192.8 1388.08,-228.8"/>
<text text-anchor="middle" x="1340" y="-206.6" font-family="Times,serif" font-size="14.00">StateDirective</text>
</g>
<!-- StateDirective&#45;&gt;SharedModule -->
<g id="edge15" class="edge">
<title>StateDirective&#45;&gt;SharedModule</title>
<path fill="none" stroke="black" d="M1300.77,-192.79C1300.77,-192.79 1300.77,-162.95 1300.77,-162.95"/>
<polygon fill="black" stroke="black" points="1304.28,-162.95 1300.77,-152.95 1297.28,-162.95 1304.28,-162.95"/>
</g>
<!-- ColumnTasksComponent -->
<g id="node19" class="node">
<title>ColumnTasksComponent</title>
<polygon fill="#ffffb3" stroke="black" points="2661.61,-152.8 2502.39,-152.8 2502.39,-116.8 2661.61,-116.8 2661.61,-152.8"/>
<text text-anchor="middle" x="2582" y="-130.6" font-family="Times,serif" font-size="14.00">ColumnTasksComponent</text>
</g>
<!-- ColumnTasksComponent&#45;&gt;TasksModule -->
<g id="edge18" class="edge">
<title>ColumnTasksComponent&#45;&gt;TasksModule</title>
<path fill="none" stroke="black" d="M2582,-152.83C2582,-177.78 2582,-219.8 2582,-219.8 2582,-219.8 2127.25,-219.8 2127.25,-219.8"/>
<polygon fill="black" stroke="black" points="2127.25,-216.3 2117.25,-219.8 2127.25,-223.3 2127.25,-216.3"/>
</g>
<!-- FormTaskComponent -->
<g id="node20" class="node">
<title>FormTaskComponent</title>
<polygon fill="#ffffb3" stroke="black" points="2484.38,-152.8 2345.62,-152.8 2345.62,-116.8 2484.38,-116.8 2484.38,-152.8"/>
<text text-anchor="middle" x="2415" y="-130.6" font-family="Times,serif" font-size="14.00">FormTaskComponent</text>
</g>
<!-- FormTaskComponent&#45;&gt;TasksModule -->
<g id="edge19" class="edge">
<title>FormTaskComponent&#45;&gt;TasksModule</title>
<path fill="none" stroke="black" d="M2415,-152.81C2415,-175.29 2415,-210.8 2415,-210.8 2415,-210.8 2127.39,-210.8 2127.39,-210.8"/>
<polygon fill="black" stroke="black" points="2127.39,-207.3 2117.39,-210.8 2127.39,-214.3 2127.39,-207.3"/>
</g>
<!-- PageAddTaskComponent -->
<g id="node21" class="node">
<title>PageAddTaskComponent</title>
<polygon fill="#ffffb3" stroke="black" points="2327.87,-152.8 2168.13,-152.8 2168.13,-116.8 2327.87,-116.8 2327.87,-152.8"/>
<text text-anchor="middle" x="2248" y="-130.6" font-family="Times,serif" font-size="14.00">PageAddTaskComponent</text>
</g>
<!-- PageAddTaskComponent&#45;&gt;TasksModule -->
<g id="edge20" class="edge">
<title>PageAddTaskComponent&#45;&gt;TasksModule</title>
<path fill="none" stroke="black" d="M2248,-153.11C2248,-172.95 2248,-201.8 2248,-201.8 2248,-201.8 2127.5,-201.8 2127.5,-201.8"/>
<polygon fill="black" stroke="black" points="2127.5,-198.3 2117.5,-201.8 2127.5,-205.3 2127.5,-198.3"/>
</g>
<!-- PageEditTaskComponent -->
<g id="node22" class="node">
<title>PageEditTaskComponent</title>
<polygon fill="#ffffb3" stroke="black" points="2150.59,-152.8 1991.41,-152.8 1991.41,-116.8 2150.59,-116.8 2150.59,-152.8"/>
<text text-anchor="middle" x="2071" y="-130.6" font-family="Times,serif" font-size="14.00">PageEditTaskComponent</text>
</g>
<!-- PageEditTaskComponent&#45;&gt;TasksModule -->
<g id="edge21" class="edge">
<title>PageEditTaskComponent&#45;&gt;TasksModule</title>
<path fill="none" stroke="black" d="M2086.37,-152.81C2086.37,-152.81 2086.37,-182.65 2086.37,-182.65"/>
<polygon fill="black" stroke="black" points="2082.87,-182.65 2086.37,-192.65 2089.87,-182.65 2082.87,-182.65"/>
</g>
<!-- PageListTasksComponent -->
<g id="node23" class="node">
<title>PageListTasksComponent</title>
<polygon fill="#ffffb3" stroke="black" points="1973.49,-152.8 1810.51,-152.8 1810.51,-116.8 1973.49,-116.8 1973.49,-152.8"/>
<text text-anchor="middle" x="1892" y="-130.6" font-family="Times,serif" font-size="14.00">PageListTasksComponent</text>
</g>
<!-- PageListTasksComponent&#45;&gt;TasksModule -->
<g id="edge22" class="edge">
<title>PageListTasksComponent&#45;&gt;TasksModule</title>
<path fill="none" stroke="black" d="M1892,-152.83C1892,-173.57 1892,-204.8 1892,-204.8 1892,-204.8 2014.44,-204.8 2014.44,-204.8"/>
<polygon fill="black" stroke="black" points="2014.44,-208.3 2024.44,-204.8 2014.44,-201.3 2014.44,-208.3"/>
</g>
<!-- TasksRoutingModule -->
<g id="node25" class="node">
<title>TasksRoutingModule</title>
<polygon fill="#8dd3c7" stroke="black" points="1786.83,-152.8 1783.83,-156.8 1762.83,-156.8 1759.83,-152.8 1649.17,-152.8 1649.17,-116.8 1786.83,-116.8 1786.83,-152.8"/>
<text text-anchor="middle" x="1718" y="-130.6" font-family="Times,serif" font-size="14.00">TasksRoutingModule</text>
</g>
<!-- TasksRoutingModule&#45;&gt;TasksModule -->
<g id="edge24" class="edge">
<title>TasksRoutingModule&#45;&gt;TasksModule</title>
<path fill="none" stroke="black" d="M1718,-153C1718,-177.16 1718,-216.8 1718,-216.8 1718,-216.8 2014.85,-216.8 2014.85,-216.8"/>
<polygon fill="black" stroke="black" points="2014.85,-220.3 2024.85,-216.8 2014.85,-213.3 2014.85,-220.3"/>
</g>
<!-- UiComponent -->
<g id="node26" class="node">
<title>UiComponent</title>
<polygon fill="#ffffb3" stroke="black" points="2798.83,-84.8 2703.17,-84.8 2703.17,-48.8 2798.83,-48.8 2798.83,-84.8"/>
<text text-anchor="middle" x="2751" y="-62.6" font-family="Times,serif" font-size="14.00">UiComponent</text>
</g>
<!-- UiModule -->
<g id="node27" class="node">
<title>UiModule</title>
<polygon fill="#8dd3c7" stroke="black" points="2787.55,-152.8 2784.55,-156.8 2763.55,-156.8 2760.55,-152.8 2714.45,-152.8 2714.45,-116.8 2787.55,-116.8 2787.55,-152.8"/>
<text text-anchor="middle" x="2751" y="-130.6" font-family="Times,serif" font-size="14.00">UiModule</text>
</g>
<!-- UiComponent&#45;&gt;UiModule -->
<g id="edge25" class="edge">
<title>UiComponent&#45;&gt;UiModule</title>
<path fill="none" stroke="black" d="M2751,-85.02C2751,-85.02 2751,-106.53 2751,-106.53"/>
<polygon fill="black" stroke="black" points="2747.5,-106.53 2751,-116.53 2754.5,-106.53 2747.5,-106.53"/>
</g>
<!-- UiComponent  -->
<g id="node28" class="node">
<title>UiComponent </title>
<polygon fill="#fb8072" stroke="black" points="2800.33,-228.8 2701.67,-228.8 2701.67,-192.8 2800.33,-192.8 2800.33,-228.8"/>
<text text-anchor="middle" x="2751" y="-206.6" font-family="Times,serif" font-size="14.00">UiComponent </text>
</g>
<!-- UiModule&#45;&gt;UiComponent  -->
<g id="edge26" class="edge">
<title>UiModule&#45;&gt;UiComponent </title>
<path fill="none" stroke="black" stroke-dasharray="5,2" d="M2751,-152.81C2751,-152.81 2751,-182.65 2751,-182.65"/>
<polygon fill="black" stroke="black" points="2747.5,-182.65 2751,-192.65 2754.5,-182.65 2747.5,-182.65"/>
</g>
</g>
</svg>
